<svg width="143" height="42" viewBox="0 0 143 42" fill="none" xmlns="http://www.w3.org/2000/svg">
<path d="M63.2 32.216C63.032 32.216 62.768 32.204 62.408 32.18C62.048 32.156 61.664 32.132 61.256 32.108C60.848 32.084 60.464 32.06 60.104 32.036C59.744 32.012 59.48 32 59.312 32H55.82C55.652 32 55.388 32.012 55.028 32.036C54.668 32.06 54.284 32.084 53.876 32.108C53.492 32.132 53.12 32.156 52.76 32.18C52.4 32.204 52.136 32.216 51.968 32.216L51.896 32.072L52.004 30.704L52.184 30.56C52.544 30.56 52.964 30.548 53.444 30.524C53.948 30.5 54.308 30.392 54.524 30.2C54.716 30.032 54.908 29.816 55.1 29.552C55.292 29.288 55.424 28.82 55.496 28.148C55.52 27.98 55.532 27.788 55.532 27.572C55.556 27.332 55.568 27.044 55.568 26.708C55.592 26.372 55.604 25.964 55.604 25.484C55.604 25.004 55.604 24.404 55.604 23.684V17.096C55.604 15.776 55.592 14.6 55.568 13.568C55.544 12.536 55.52 11.768 55.496 11.264H55.1C54.188 11.264 53.432 11.276 52.832 11.3C52.232 11.3 51.752 11.324 51.392 11.372C51.032 11.396 50.756 11.432 50.564 11.48C50.396 11.528 50.276 11.588 50.204 11.66C49.94 11.78 49.724 11.972 49.556 12.236C49.388 12.5 49.28 12.812 49.232 13.172L49.088 13.316H47.54L47.792 8.492L47.936 8.168L48.152 8.06C48.344 8.132 48.764 8.204 49.412 8.276C50.06 8.324 50.768 8.36 51.536 8.384C52.304 8.408 53.036 8.432 53.732 8.456C54.452 8.456 54.968 8.456 55.28 8.456H59.816C60.128 8.456 60.632 8.456 61.328 8.456C62.048 8.432 62.792 8.408 63.56 8.384C64.328 8.36 65.036 8.324 65.684 8.276C66.332 8.204 66.752 8.132 66.944 8.06L67.16 8.168L67.304 8.492L67.592 13.316H66.008L65.864 13.172C65.816 12.812 65.708 12.5 65.54 12.236C65.372 11.972 65.156 11.78 64.892 11.66C64.82 11.564 64.688 11.492 64.496 11.444C64.328 11.372 64.064 11.324 63.704 11.3C63.344 11.276 62.864 11.264 62.264 11.264C61.688 11.264 60.944 11.264 60.032 11.264H59.636C59.612 11.84 59.588 12.608 59.564 13.568C59.564 14.528 59.564 15.692 59.564 17.06V22.964C59.564 23.828 59.564 24.536 59.564 25.088C59.564 25.616 59.564 26.06 59.564 26.42C59.588 26.78 59.6 27.092 59.6 27.356C59.624 27.596 59.648 27.86 59.672 28.148C59.72 28.844 59.852 29.324 60.068 29.588C60.284 29.852 60.488 30.056 60.68 30.2C60.776 30.296 60.908 30.368 61.076 30.416C61.268 30.464 61.472 30.5 61.688 30.524C61.904 30.548 62.12 30.56 62.336 30.56C62.576 30.56 62.792 30.56 62.984 30.56L63.164 30.704L63.272 32.072L63.2 32.216ZM80.2671 8.06L86.4591 24.404C86.6751 25.004 86.8671 25.508 87.0351 25.916C87.2031 26.324 87.3351 26.672 87.4311 26.96C87.5511 27.248 87.6471 27.488 87.7191 27.68C87.8151 27.848 87.8991 28.004 87.9711 28.148C88.2591 28.748 88.5471 29.216 88.8351 29.552C89.1471 29.864 89.4471 30.104 89.7351 30.272C90.0471 30.416 90.3591 30.5 90.6711 30.524C90.9831 30.548 91.2951 30.56 91.6071 30.56L91.7871 30.704L91.8951 32.072L91.8231 32.216C91.6551 32.216 91.4031 32.204 91.0671 32.18C90.7311 32.156 90.3831 32.132 90.0231 32.108C89.6631 32.084 89.3151 32.06 88.9791 32.036C88.6671 32.012 88.4271 32 88.2591 32H85.6311C85.4631 32 85.1871 32.012 84.8031 32.036C84.4191 32.06 84.0111 32.084 83.5791 32.108C83.1711 32.132 82.7751 32.156 82.3911 32.18C82.0071 32.204 81.7311 32.216 81.5631 32.216L81.4911 32.072L81.5991 30.704L81.7431 30.56C82.3671 30.56 82.8351 30.488 83.1471 30.344C83.4831 30.176 83.6511 29.744 83.6511 29.048C83.6511 28.664 83.5791 28.124 83.4351 27.428C83.3151 26.708 83.0151 25.82 82.5351 24.764L81.7791 23.036H75.4791L74.7591 24.764C74.3271 25.82 74.0031 26.72 73.7871 27.464C73.5711 28.208 73.4631 28.736 73.4631 29.048C73.4631 29.624 73.5831 30.02 73.8231 30.236C74.0631 30.452 74.4951 30.56 75.1191 30.56L75.2991 30.704L75.4071 32.072L75.3351 32.216C75.1671 32.216 74.9031 32.204 74.5431 32.18C74.1831 32.156 73.7991 32.132 73.3911 32.108C73.0071 32.084 72.6351 32.06 72.2751 32.036C71.9151 32.012 71.6511 32 71.4831 32H69.3591C69.1911 32 68.9391 32.012 68.6031 32.036C68.2671 32.06 67.9191 32.084 67.5591 32.108C67.1991 32.132 66.8511 32.156 66.5151 32.18C66.2031 32.204 65.9631 32.216 65.7951 32.216L65.7591 32.072L65.8311 30.704L66.0111 30.56C66.3231 30.56 66.6351 30.536 66.9471 30.488C67.2591 30.44 67.5711 30.332 67.8831 30.164C68.1951 29.996 68.4951 29.768 68.7831 29.48C69.0951 29.168 69.4071 28.772 69.7191 28.292C69.7911 28.148 69.8991 27.932 70.0431 27.644C70.1871 27.332 70.4151 26.792 70.7271 26.024C71.0391 25.256 71.4711 24.164 72.0231 22.748C72.5751 21.332 73.3071 19.448 74.2191 17.096L77.3151 9.14L79.8711 8.06H80.2671ZM76.0911 20.408H80.8071L78.5031 14.036L76.0911 20.408ZM112.423 10.688C112.207 10.832 111.883 11.096 111.451 11.48C111.043 11.864 110.587 12.32 110.083 12.848C109.579 13.352 109.039 13.904 108.463 14.504C107.911 15.104 107.371 15.68 106.843 16.232L104.395 18.824C105.307 20.168 106.183 21.524 107.023 22.892C107.887 24.236 108.883 25.532 110.011 26.78C110.491 27.332 110.959 27.824 111.415 28.256C111.895 28.664 112.399 29.024 112.927 29.336C113.455 29.624 114.019 29.876 114.619 30.092C115.219 30.284 115.903 30.44 116.671 30.56L116.887 30.704L116.959 32.072L116.887 32.216C116.527 32.216 116.143 32.216 115.735 32.216C115.327 32.24 114.907 32.264 114.475 32.288C114.067 32.312 113.683 32.324 113.323 32.324C112.963 32.348 112.663 32.36 112.423 32.36C111.799 32.36 111.223 32.276 110.695 32.108C110.167 31.964 109.651 31.712 109.147 31.352C108.667 30.992 108.175 30.512 107.671 29.912C107.167 29.312 106.615 28.58 106.015 27.716C105.871 27.5 105.619 27.128 105.259 26.6C104.923 26.048 104.551 25.448 104.143 24.8C103.735 24.152 103.327 23.504 102.919 22.856C102.511 22.184 102.151 21.608 101.839 21.128C101.551 21.392 101.263 21.656 100.975 21.92C100.687 22.16 100.411 22.412 100.147 22.676V22.964C100.147 23.972 100.147 24.752 100.147 25.304C100.147 25.832 100.147 26.264 100.147 26.6C100.171 26.912 100.183 27.176 100.183 27.392C100.207 27.584 100.231 27.836 100.255 28.148C100.303 28.844 100.411 29.324 100.579 29.588C100.747 29.852 100.927 30.056 101.119 30.2C101.335 30.392 101.611 30.5 101.947 30.524C102.307 30.548 102.679 30.56 103.063 30.56L103.207 30.704L103.315 32.072L103.243 32.216C103.075 32.216 102.799 32.204 102.415 32.18C102.031 32.156 101.635 32.132 101.227 32.108C100.819 32.084 100.423 32.06 100.039 32.036C99.655 32.012 99.379 32 99.211 32H97.087C96.919 32 96.643 32.012 96.259 32.036C95.875 32.06 95.479 32.084 95.071 32.108C94.663 32.132 94.267 32.156 93.883 32.18C93.499 32.204 93.223 32.216 93.055 32.216L92.983 32.072L93.091 30.704L93.271 30.56C93.655 30.56 94.015 30.548 94.351 30.524C94.687 30.476 94.963 30.368 95.179 30.2C95.371 30.032 95.551 29.816 95.719 29.552C95.911 29.288 96.031 28.82 96.079 28.148C96.079 27.98 96.079 27.788 96.079 27.572C96.103 27.332 96.115 27.044 96.115 26.708C96.139 26.372 96.151 25.964 96.151 25.484C96.151 25.004 96.151 24.404 96.151 23.684V17.816C96.151 16.976 96.151 16.268 96.151 15.692C96.151 15.116 96.151 14.624 96.151 14.216C96.151 13.808 96.139 13.46 96.115 13.172C96.115 12.884 96.103 12.596 96.079 12.308C96.031 11.66 95.911 11.192 95.719 10.904C95.551 10.616 95.371 10.4 95.179 10.256C94.963 10.064 94.687 9.956 94.351 9.932C94.015 9.908 93.655 9.896 93.271 9.896L93.091 9.752L92.983 8.384L93.055 8.24C93.223 8.24 93.499 8.252 93.883 8.276C94.267 8.3 94.663 8.324 95.071 8.348C95.479 8.372 95.875 8.396 96.259 8.42C96.643 8.444 96.919 8.456 97.087 8.456H99.211C99.379 8.456 99.655 8.444 100.039 8.42C100.423 8.396 100.819 8.372 101.227 8.348C101.635 8.324 102.031 8.3 102.415 8.276C102.799 8.252 103.075 8.24 103.243 8.24L103.315 8.384L103.207 9.752L103.063 9.896C102.727 9.896 102.367 9.92 101.983 9.968C101.623 9.992 101.335 10.088 101.119 10.256C100.927 10.424 100.735 10.64 100.543 10.904C100.375 11.168 100.279 11.636 100.255 12.308C100.231 12.596 100.207 12.884 100.183 13.172C100.183 13.436 100.171 13.76 100.147 14.144C100.147 14.504 100.147 14.936 100.147 15.44C100.147 15.92 100.147 16.508 100.147 17.204V18.932C100.627 18.692 101.179 18.332 101.803 17.852C102.427 17.348 103.051 16.808 103.675 16.232C104.131 15.8 104.599 15.332 105.079 14.828C105.559 14.3 105.991 13.796 106.375 13.316C106.783 12.836 107.107 12.404 107.347 12.02C107.587 11.636 107.707 11.372 107.707 11.228C107.707 10.964 107.647 10.76 107.527 10.616C107.431 10.448 107.287 10.316 107.095 10.22C106.927 10.124 106.723 10.052 106.483 10.004C106.243 9.956 106.003 9.908 105.763 9.86L105.583 9.716V8.348L105.763 8.204C106.243 8.3 106.747 8.36 107.275 8.384C107.827 8.408 108.379 8.42 108.931 8.42H112.135C112.423 8.42 112.663 8.42 112.855 8.42C113.071 8.42 113.275 8.408 113.467 8.384C113.683 8.36 113.911 8.336 114.151 8.312C114.391 8.288 114.679 8.252 115.015 8.204L115.159 8.348V9.716L115.015 9.86C114.679 9.908 114.247 10.004 113.719 10.148C113.215 10.292 112.783 10.472 112.423 10.688ZM142.241 8.384L142.133 9.752L141.989 9.896C141.653 9.896 141.293 9.92 140.909 9.968C140.549 9.992 140.261 10.088 140.045 10.256C139.853 10.424 139.661 10.64 139.469 10.904C139.301 11.168 139.193 11.636 139.145 12.308C139.145 12.596 139.133 12.884 139.109 13.172C139.109 13.46 139.097 13.808 139.073 14.216C139.073 14.624 139.073 15.116 139.073 15.692C139.073 16.268 139.073 16.976 139.073 17.816V24.008C139.073 25.184 138.869 26.288 138.461 27.32C138.077 28.328 137.501 29.216 136.733 29.984C135.965 30.728 135.005 31.316 133.853 31.748C132.725 32.18 131.429 32.396 129.965 32.396C128.165 32.396 126.653 32.18 125.429 31.748C124.229 31.316 123.269 30.728 122.549 29.984C121.829 29.216 121.313 28.328 121.001 27.32C120.689 26.288 120.533 25.184 120.533 24.008V17.816C120.533 16.976 120.533 16.268 120.533 15.692C120.533 15.116 120.533 14.624 120.533 14.216C120.533 13.808 120.521 13.46 120.497 13.172C120.497 12.884 120.485 12.596 120.461 12.308C120.413 11.66 120.293 11.192 120.101 10.904C119.933 10.616 119.753 10.4 119.561 10.256C119.345 10.064 119.069 9.956 118.733 9.932C118.397 9.908 118.037 9.896 117.653 9.896L117.473 9.752L117.365 8.384L117.437 8.24C117.605 8.24 117.881 8.252 118.265 8.276C118.649 8.3 119.045 8.324 119.453 8.348C119.861 8.372 120.257 8.396 120.641 8.42C121.025 8.444 121.301 8.456 121.469 8.456H123.593C123.761 8.456 124.037 8.444 124.421 8.42C124.805 8.396 125.201 8.372 125.609 8.348C126.017 8.324 126.413 8.3 126.797 8.276C127.181 8.252 127.457 8.24 127.625 8.24L127.697 8.384L127.589 9.752L127.445 9.896C127.109 9.896 126.749 9.92 126.365 9.968C126.005 9.992 125.717 10.088 125.501 10.256C125.309 10.424 125.129 10.64 124.961 10.904C124.793 11.168 124.685 11.636 124.637 12.308C124.613 12.644 124.589 12.956 124.565 13.244C124.565 13.532 124.553 13.868 124.529 14.252C124.529 14.636 124.529 15.104 124.529 15.656C124.529 16.208 124.529 16.916 124.529 17.78V23C124.529 25.232 124.961 26.828 125.825 27.788C126.713 28.724 128.069 29.192 129.893 29.192C130.709 29.192 131.465 29.084 132.161 28.868C132.857 28.628 133.457 28.256 133.961 27.752C134.465 27.248 134.861 26.612 135.149 25.844C135.437 25.052 135.581 24.104 135.581 23V17.78C135.581 16.916 135.581 16.208 135.581 15.656C135.581 15.104 135.569 14.636 135.545 14.252C135.545 13.868 135.533 13.532 135.509 13.244C135.509 12.956 135.497 12.644 135.473 12.308C135.425 11.612 135.305 11.132 135.113 10.868C134.945 10.604 134.765 10.4 134.573 10.256C134.381 10.064 134.105 9.956 133.745 9.932C133.409 9.908 133.049 9.896 132.665 9.896L132.485 9.752L132.377 8.384L132.449 8.24C132.617 8.24 132.869 8.252 133.205 8.276C133.541 8.3 133.889 8.324 134.249 8.348C134.633 8.372 134.993 8.396 135.329 8.42C135.665 8.444 135.917 8.456 136.085 8.456H138.317C138.485 8.456 138.749 8.444 139.109 8.42C139.469 8.396 139.841 8.372 140.225 8.348C140.633 8.324 141.017 8.3 141.377 8.276C141.737 8.252 142.001 8.24 142.169 8.24L142.241 8.384Z" fill="black"/>
<circle cx="21" cy="21" r="21" fill="black"/>
<circle cx="29" cy="21" r="8" fill="#FBC13E"/>
</svg>
